<svg width="28" height="28" viewBox="0 0 28 28" fill="none" xmlns="http://www.w3.org/2000/svg">
<g clip-path="url(#clip0_73_38)">
<path d="M2.10645 3.46458H25.3011V25.706H2.10645V3.46458Z" fill="white"/>
<path d="M0.0279541 2.00603C0.0279541 0.898398 0.952687 -7.62939e-05 2.09289 -7.62939e-05H25.907C27.0472 -7.62939e-05 27.972 0.898398 27.972 2.00603V25.9949C27.972 27.1026 27.0472 27.9999 25.907 27.9999H2.09289C0.952687 27.9999 0.0279541 27.1026 0.0279541 25.9949V2.00603Z" fill="#0A66C2"/>
<path d="M8.52005 23.4323V10.8267H4.33855V23.4323H8.52005ZM6.43042 9.10618C7.88822 9.10618 8.79612 8.13799 8.79612 6.92803C8.76918 5.69108 7.88822 4.74988 6.45847 4.74988C5.02761 4.74988 4.09277 5.69108 4.09277 6.92803C4.09277 8.13799 4.99955 9.10618 6.40348 9.10618H6.43042ZM10.8341 23.4323H15.0156V16.3929C15.0156 16.0162 15.0426 15.6395 15.1537 15.3708C15.4555 14.6173 16.1435 13.8381 17.2994 13.8381C18.8122 13.8381 19.4171 14.9941 19.4171 16.6887V23.4312H23.5986V16.204C23.5986 12.3324 21.5359 10.5309 18.7853 10.5309C16.5295 10.5309 15.5397 11.7937 14.9887 12.654H15.0167V10.8267H10.8341C10.8891 12.0096 10.8341 23.4323 10.8341 23.4323Z" fill="white"/>
</g>
<defs>
<clipPath id="clip0_73_38">
<rect width="28" height="28" fill="white"/>
</clipPath>
</defs>
</svg>
