<svg width="32" height="32" viewBox="0 0 32 32" fill="none" xmlns="http://www.w3.org/2000/svg">
<path d="M2.18188 28.4817H7.27275V16.1181L0 10.6636V26.3C0 27.5054 0.976375 28.4819 2.18188 28.4819V28.4817Z" fill="#4285F4"/>
<path d="M24.7273 28.4817H29.8182C31.0237 28.4817 32 27.5054 32 26.2999V10.6636L24.7273 16.1181V28.4817Z" fill="#34A853"/>
<path d="M24.7273 6.66383V16.1184L32 10.6638V7.75477C32 5.05839 28.9219 3.51839 26.7637 5.13658L24.7273 6.66383Z" fill="#FBBC04"/>
<path fill-rule="evenodd" clip-rule="evenodd" d="M7.27271 16.1181V6.66356L16 13.2091L24.7272 6.66356V16.1181L16 22.6636L7.27271 16.1181Z" fill="#EA4335"/>
<path d="M0 7.75449V10.6636L7.27275 16.1181V6.66356L5.23638 5.13631C3.07813 3.51812 0 5.05812 0 7.75437V7.75449Z" fill="#C5221F"/>
</svg>
